<mxfile host="app.diagrams.net" modified="2023-06-15T18:38:53.204Z" agent="Mozilla/5.0 (Windows NT 10.0; Win64; x64) AppleWebKit/537.36 (KHTML, like Gecko) Chrome/113.0.0.0 Safari/537.36" version="21.4.0" etag="wIyBu3lsm3DtCX5Ixq_s" type="github">
  <diagram name="第 1 页" id="AqkgXpJlyfz8C1bL5PtY">
    <mxGraphModel>
      <root>
        <mxCell id="0" />
        <mxCell id="1" parent="0" />
      </root>
    </mxGraphModel>
  </diagram>
</mxfile>
